<?xml version="1.0" encoding="UTF-8"?>
<svg width="48px" height="48px" viewBox="0 0 48 48" version="1.1" xmlns="http://www.w3.org/2000/svg" xmlns:xlink="http://www.w3.org/1999/xlink">
    <!-- Generator: Sketch 51 (57462) - http://www.bohemiancoding.com/sketch -->
    <title>Logo</title>
    <desc>Created with Sketch.</desc>
    <defs></defs>
    <g id="Page-1" stroke="none" stroke-width="1" fill="none" fill-rule="evenodd">
        <g id="Logo" fill-rule="nonzero">
            <circle id="Oval" fill="#FFFFFF" cx="24" cy="24" r="24"></circle>
            <path d="M25.3591753,23.4518673 C25.0096374,22.9686212 24.7610378,22.6112122 24.519621,22.2361587 C23.8725228,21.2666779 23.6825766,20.2112545 23.8742279,19.034875 L23.8882949,18.9593513 C23.9570668,18.6315905 24.0630019,18.3139796 24.2041053,18.0072862 C24.3375704,17.7185782 24.5006786,17.4438972 24.689619,17.1873384 C24.932422,16.8575481 25.2169106,16.5585871 25.5532433,16.2824513 C26.678762,15.3889238 28.0104305,15.1054976 29.5011329,15.27933 C30.4978457,15.3955577 31.3312639,15.646205 32.7692308,16.1799648 L31.7688609,19.2147298 C29.390618,18.3319483 28.2159487,18.1925129 27.3784123,18.8487654 C27.2628639,18.945027 27.1610179,19.052769 27.0770125,19.1668705 C27.0153956,19.2505389 26.9642206,19.3367198 26.9254749,19.4205267 C26.8934984,19.4900304 26.8694505,19.5584908 26.8529787,19.6258341 C26.8022222,19.9685391 26.8401447,20.1522283 27.0143361,20.4116704 C27.2200924,20.7319047 27.4405661,21.0490808 27.7625967,21.4942973 C27.7293078,21.4482745 28.2179593,22.120817 28.3525403,22.309139 C28.9318368,23.1197606 29.3193482,23.7317647 29.647757,24.40408 C30.072966,25.2745638 30.3414038,26.157343 30.4432595,27.1280387 C30.479148,27.5114588 30.4856747,27.8944757 30.4615644,28.2761733 C30.4107884,29.0766629 30.2253176,29.8619807 29.9018266,30.6198119 C29.7540861,30.966192 29.5753344,31.2965534 29.3684738,31.6079884 C28.7787891,32.4964199 27.9705875,33.2170587 27.0243489,33.7231416 C26.661102,33.9173505 26.2800243,34.07858 25.8455418,34.2174316 C22.947861,35.0540061 19.7137951,34.1413683 17.6962369,31.8704161 L19.9007798,29.6649616 C21.1343188,31.0534261 23.1999766,31.6402874 25.0292904,31.1210985 C25.2491148,31.049225 25.4607993,30.9590006 25.660911,30.8520116 C26.1741121,30.5775329 26.5966376,30.200785 26.8917347,29.7561854 C26.9898621,29.6084517 27.0733482,29.4541561 27.1418031,29.2936627 C27.3155508,28.8866299 27.4121617,28.4775612 27.4386036,28.0607031 C27.4511362,27.8622955 27.4479404,27.6605447 27.429202,27.4553272 C27.3215427,26.4498922 26.9130472,25.6156441 25.9384197,24.2518276 C25.8124678,24.0755805 25.3327468,23.4153292 25.3591753,23.4518673 Z M22.1281359,16.8824158 L22.1281359,24.7924765 L23.9815993,24.7924765 L23.9815993,28.0075491 L19.0983632,28.0075491 L19.0983632,16.8824158 L22.1281359,16.8824158 Z M17.5672845,24.0050428 C17.5672845,25.2038183 16.6517882,26.175574 15.5221879,26.175574 C14.3924194,26.175574 13.4769231,25.2038183 13.4769231,24.0050428 C13.4769231,22.8065352 14.3924194,21.8349581 15.5221879,21.8349581 C16.6517882,21.8349581 17.5672845,22.8065352 17.5672845,24.0050428 Z" id="Combined-Shape" fill="#202020"></path>
        </g>
    </g>
</svg>